<svg width="25" height="25" viewBox="0 0 25 25" fill="none" xmlns="http://www.w3.org/2000/svg">
<path fill-rule="evenodd" clip-rule="evenodd" d="M15.2591 3.98521C14.9849 3.85464 14.6606 3.92763 14.4818 4.12619L9.0082 10.206C8.81784 10.4175 8.72005 10.678 8.72005 10.9393V19.9242C8.72005 20.5158 9.23863 21.0797 9.98506 21.0797H18.3606C19.0104 21.0797 19.5075 20.642 19.6068 20.1221L21.0609 12.5079C21.1713 11.9299 20.7744 11.3002 20.0494 11.1747C19.9721 11.1613 19.8935 11.1546 19.8147 11.1546H14.5551C14.2245 11.1546 13.9144 10.9944 13.7231 10.7247C13.5319 10.4551 13.4831 10.1095 13.5924 9.79751L15.4734 4.42478C15.5238 4.28099 15.4701 4.08565 15.2591 3.98521ZM12.9657 2.76126C13.7641 1.8745 15.0674 1.63457 16.136 2.14327C17.2361 2.66698 17.812 3.91868 17.3988 5.09889L15.9929 9.11456H19.8147C20.01 9.11456 20.205 9.13129 20.3974 9.1646C22.1557 9.46897 23.4058 11.1043 23.0647 12.8905L21.6106 20.5047C21.3148 22.0536 19.9194 23.1197 18.3606 23.1197H9.98506C8.20754 23.1197 6.68005 21.7357 6.68005 19.9242V10.9393C6.68005 10.162 6.97251 9.41821 7.4921 8.84107L12.9657 2.76126Z" fill="#CACACA"/>
<path fill-rule="evenodd" clip-rule="evenodd" d="M4.10002 10.0996C4.76277 10.0996 5.30002 10.6369 5.30002 11.2996V20.8996C5.30002 21.5623 4.76277 22.0996 4.10002 22.0996C3.43728 22.0996 2.90002 21.5623 2.90002 20.8996V11.2996C2.90002 10.6369 3.43728 10.0996 4.10002 10.0996Z" fill="#CACACA"/>
</svg>
